# xmcd CD database file
#
# Track frame offsets:
#	150
#	26683
#	44158
#	64883
#	77183
#	94545
#	109308
#	130358
#	142570
#	161783
#	172958
#	191533
#	201758
#
# Disc length: 2950 seconds
#
# Revision: 0
# Processed by: cddbd v1.5.1PL0 Copyright (c) Steve Scherf et al.
# Submitted via: CDex 1.51
#
DISCID=b40b840d
DTITLE=Ladies Nyght - How to fly
DYEAR=2005
DGENRE=Jazz
TTITLE0=My favorite Things
TTITLE1=Sister (Miss Celie's Blues)
TTITLE2=Here comes the Sun
TTITLE3=Upa Neguinho
TTITLE4=Doodlin'
TTITLE5=Lovers
TTITLE6=Love Junkyard
TTITLE7=Favela
TTITLE8=Old Cape Cod
TTITLE9=The Joint is jumpin'
TTITLE10=river
TTITLE11=I hear Music
TTITLE12=Learning how to fly
EXTD=YEAR: 2005
EXTT0=
EXTT1=
EXTT2=
EXTT3=
EXTT4=
EXTT5=
EXTT6=
EXTT7=
EXTT8=
EXTT9=
EXTT10=
EXTT11=
EXTT12=
PLAYORDER=
